<?xml version="1.0" standalone="no"?>
<!DOCTYPE svg PUBLIC "-//W3C//DTD SVG 20010904//EN"
 "http://www.w3.org/TR/2001/REC-SVG-20010904/DTD/svg10.dtd">
<svg version="1.0" xmlns="http://www.w3.org/2000/svg"
 width="954.000000pt" height="738.000000pt" viewBox="0 0 954.000000 738.000000"
 preserveAspectRatio="xMidYMid meet">
<metadata>
Created by potrace 1.10, written by Peter Selinger 2001-2011
</metadata>
<g transform="translate(0.000000,738.000000) scale(0.100000,-0.100000)"
fill="#ffd500" stroke="none">
<path d="M1095 6919 c-143 -7 -391 -49 -458 -77 -16 -7 -32 -12 -36 -12 -10 0
-75 -32 -81 -40 -3 -3 -21 -16 -40 -27 -55 -34 -95 -82 -129 -155 -26 -57 -31
-79 -31 -146 0 -201 127 -358 345 -425 72 -22 242 -46 375 -52 63 -3 133 -10
155 -15 22 -5 76 -10 120 -10 44 -1 98 -7 120 -15 22 -8 48 -15 57 -15 22 0
50 -42 43 -62 -4 -9 -24 -24 -46 -33 -32 -15 -67 -18 -182 -18 -189 0 -261 17
-316 76 l-40 42 -306 0 c-295 0 -307 -1 -321 -20 -15 -20 -12 -87 5 -124 5 -9
17 -34 27 -56 29 -59 131 -157 220 -209 43 -25 83 -46 89 -46 5 0 22 -6 37
-14 15 -8 42 -17 60 -21 18 -3 42 -10 53 -15 23 -10 132 -26 280 -41 117 -12
471 -4 542 12 139 32 183 43 238 62 33 11 71 29 85 39 14 11 39 26 55 32 55
24 130 102 166 173 33 66 34 72 34 183 0 140 -8 161 -91 258 -42 49 -133 102
-214 126 -70 20 -173 35 -330 46 -69 5 -159 14 -200 19 -41 6 -111 13 -155 16
-91 6 -184 24 -202 38 -20 15 -15 55 8 68 26 14 275 24 352 15 47 -6 66 -15
113 -54 l57 -47 298 0 c286 0 299 1 313 20 26 34 21 61 -36 185 -34 75 -148
177 -258 233 -53 26 -107 47 -120 47 -14 0 -38 7 -54 15 -15 8 -40 15 -55 15
-15 0 -68 6 -117 14 -107 18 -267 23 -429 15z"/>
<path d="M2383 6889 c-26 -10 -34 -56 -33 -207 0 -64 0 -364 -1 -665 0 -483 2
-552 16 -573 15 -23 21 -24 133 -26 64 -1 191 0 282 1 150 3 167 5 187 24 23
20 23 22 25 376 2 230 7 356 13 355 9 -1 184 -330 215 -404 48 -112 158 -315
180 -330 22 -16 49 -19 158 -22 l131 -2 29 27 c16 16 34 38 40 50 6 12 47 99
92 192 91 190 105 218 180 360 51 98 79 139 88 131 2 -3 6 -166 9 -363 4 -353
5 -358 26 -375 20 -16 52 -18 294 -18 l272 0 20 26 c21 26 21 34 21 714 0 662
-1 689 -19 711 l-19 24 -385 0 c-441 0 -405 8 -456 -99 -80 -168 -111 -239
-111 -257 0 -11 -7 -22 -15 -25 -8 -4 -15 -11 -15 -17 0 -6 -13 -38 -29 -71
-16 -34 -50 -106 -75 -161 -60 -130 -60 -130 -81 -130 -17 0 -56 64 -94 156
-8 19 -33 75 -56 124 -24 50 -53 113 -65 140 -90 206 -139 299 -168 320 -26
19 -43 20 -398 21 -204 0 -380 -3 -391 -7z"/>
<path d="M4977 6892 c-18 -2 -35 -14 -46 -33 -18 -29 -19 -69 -17 -714 1 -670
1 -685 21 -704 19 -19 34 -21 280 -22 143 0 272 0 287 0 19 1 32 11 47 35 20
32 21 44 16 197 -3 90 -8 172 -11 182 -3 10 -1 24 6 32 8 9 10 130 7 432 -3
230 -5 423 -5 428 0 6 1 34 2 64 2 43 -2 59 -19 78 l-21 25 -259 2 c-143 1
-273 0 -288 -2z"/>
<path d="M5824 6893 c-93 -7 -89 14 -90 -442 -2 -558 6 -998 20 -1016 10 -13
107 -15 781 -16 l769 0 18 23 c15 20 18 47 18 214 0 178 -1 193 -20 217 l-21
26 -449 3 c-246 2 -452 7 -457 11 -4 5 -9 219 -11 477 -2 443 -4 468 -21 484
-17 15 -49 18 -253 21 -128 1 -256 1 -284 -2z"/>
<path d="M7513 6893 c-13 -3 -31 -16 -42 -29 -19 -25 -20 -43 -18 -719 2 -652
3 -695 20 -712 17 -17 61 -18 799 -16 706 1 782 3 797 17 13 14 17 44 19 158
5 181 1 203 -40 217 -20 7 -176 11 -458 11 -468 0 -482 2 -493 57 -7 38 -2 46
43 66 36 15 84 17 449 17 382 0 409 1 424 18 26 28 25 320 0 351 -18 21 -23
21 -443 22 -419 0 -425 0 -447 21 -27 25 -29 64 -5 95 l17 22 463 3 c529 3
485 -5 497 99 9 77 -4 264 -20 285 -11 16 -71 17 -776 19 -420 1 -774 0 -786
-2z"/>
<path d="M3810 4943 c-56 -5 -182 -34 -217 -49 -17 -8 -33 -14 -36 -14 -23 0
-136 -83 -177 -129 -89 -100 -120 -187 -120 -333 0 -111 33 -228 78 -276 6 -7
12 -17 12 -21 0 -19 103 -109 152 -134 51 -26 164 -61 278 -87 37 -8 109 -10
220 -7 169 4 271 18 327 43 17 8 35 14 40 14 36 0 174 98 215 152 92 120 121
241 99 400 -23 163 -88 261 -228 346 -30 17 -56 32 -59 32 -4 0 -20 6 -37 14
-50 22 -115 37 -197 46 -73 8 -280 10 -350 3z m303 -352 c23 -11 56 -34 72
-51 28 -30 30 -36 30 -114 0 -75 -3 -86 -28 -119 -47 -62 -96 -81 -207 -82
-147 0 -217 41 -244 146 -13 47 -13 60 1 108 15 54 53 100 84 101 8 0 19 4 25
9 15 14 43 19 137 20 67 1 98 -3 130 -18z"/>
<path d="M4835 4931 c-29 -4 -43 -13 -52 -31 -19 -37 -14 -953 5 -972 10 -10
61 -13 209 -12 179 0 197 2 209 19 10 13 14 52 14 131 0 130 -5 124 104 124
90 0 112 -14 207 -139 109 -141 81 -131 360 -131 l239 0 0 24 c0 22 -21 53
-73 111 -10 11 -28 33 -40 48 -12 16 -41 52 -64 80 -24 28 -43 54 -43 59 0 4
24 23 53 42 80 52 113 86 146 149 26 49 31 68 31 129 0 66 -19 145 -43 173 -4
6 -18 25 -31 42 -51 71 -120 112 -245 144 -67 17 -111 19 -510 17 -240 -1
-454 -4 -476 -7z m815 -341 c19 -30 11 -59 -20 -75 -38 -20 -373 -23 -396 -4
-20 17 -18 76 4 89 11 6 88 9 210 8 159 -3 194 -6 202 -18z"/>
<path d="M202 4398 c-16 -16 -16 -100 0 -116 17 -17 2529 -17 2546 0 16 16 16
100 0 116 -17 17 -2529 17 -2546 0z"/>
<path d="M6652 4398 c-7 -7 -12 -33 -12 -58 0 -25 5 -51 12 -58 17 -17 2529
-17 2546 0 16 16 16 100 0 116 -17 17 -2529 17 -2546 0z"/>
<path d="M3415 3440 c-150 -14 -321 -49 -375 -77 -14 -7 -31 -13 -38 -13 -7 0
-20 -4 -30 -9 -9 -6 -39 -20 -67 -33 -131 -60 -267 -198 -332 -338 -64 -139
-68 -160 -68 -355 0 -184 6 -221 51 -322 8 -17 14 -34 14 -38 0 -16 113 -176
147 -209 74 -71 208 -149 293 -171 14 -3 34 -10 45 -15 103 -42 228 -67 405
-79 130 -10 354 -6 372 5 5 3 39 7 76 9 90 4 199 26 306 63 88 31 226 105 226
122 0 5 9 12 21 15 40 13 154 137 187 205 7 14 21 39 31 55 11 17 20 37 20 45
1 8 7 27 15 41 22 43 47 208 43 289 -4 77 -20 178 -39 240 -18 62 -89 200
-108 210 -10 6 -22 19 -25 30 -10 30 -130 138 -191 173 -8 4 -22 12 -31 17
-10 6 -29 15 -43 20 -14 6 -34 14 -45 19 -86 37 -184 65 -295 85 -101 18 -436
27 -565 16z m385 -536 c76 -24 180 -93 180 -118 0 -5 7 -17 16 -27 12 -13 16
-43 17 -131 2 -123 -9 -160 -70 -228 -68 -76 -186 -112 -348 -104 -64 2 -120
10 -137 18 -15 8 -40 17 -56 20 -42 10 -119 81 -143 134 -31 65 -33 227 -5
287 39 83 93 121 228 156 90 23 235 20 318 -7z"/>
<path d="M6340 3417 c-16 -4 -33 -13 -37 -20 -4 -6 -10 -201 -13 -431 -4 -314
-8 -420 -17 -423 -7 -3 -39 33 -73 79 -33 46 -64 88 -68 93 -4 6 -19 28 -32
50 -13 22 -27 42 -30 45 -3 3 -17 23 -30 45 -13 22 -27 42 -30 45 -3 3 -17 23
-30 45 -13 22 -26 42 -29 45 -4 3 -24 32 -46 65 -22 33 -44 65 -48 70 -4 6
-39 57 -77 115 -38 58 -85 121 -105 140 l-36 35 -212 -3 c-117 -2 -219 -3
-227 -3 -8 -1 -73 0 -144 1 -115 2 -131 0 -143 -16 -14 -20 -17 -219 -17
-1144 0 -91 0 -216 0 -278 -1 -112 -1 -114 27 -138 l27 -23 286 -1 c157 0 296
3 310 6 14 4 31 18 37 33 8 17 13 152 17 415 4 291 8 390 17 393 7 3 31 -23
55 -56 113 -160 134 -190 148 -211 8 -12 29 -41 46 -64 16 -22 44 -61 60 -86
17 -25 58 -85 92 -135 34 -49 67 -98 74 -109 7 -10 18 -24 23 -30 6 -6 23 -30
38 -52 15 -23 42 -55 60 -70 l32 -29 347 0 347 0 23 23 23 23 3 722 c1 397 0
741 -3 765 -10 71 -12 71 -333 74 -155 2 -295 0 -312 -5z m-1132 -814 c-4 -22
-22 -20 -26 1 -2 10 3 16 13 16 10 0 15 -7 13 -17z m-3 -131 c0 -18 -20 -15
-23 4 -3 10 1 15 10 12 7 -3 13 -10 13 -16z"/>
<path d="M309 3401 l-24 -19 1 -761 c0 -761 0 -761 21 -783 21 -21 24 -21 590
-20 335 1 586 6 613 11 25 6 88 14 140 20 99 9 163 23 217 47 17 8 38 14 47
14 23 0 178 82 228 121 76 59 111 102 166 202 25 45 41 85 37 94 -3 9 1 23 8
32 35 40 54 225 25 242 -10 7 -10 11 4 21 14 11 15 24 7 88 -20 178 -68 309
-144 394 -19 22 -35 42 -35 46 0 12 -139 107 -205 139 -125 60 -153 69 -292
97 -140 28 -250 32 -819 33 -539 1 -563 0 -585 -18z m1126 -492 c5 -5 15 -9
22 -9 35 0 112 -48 144 -89 55 -72 68 -108 69 -192 0 -68 -4 -82 -38 -150 -35
-67 -44 -77 -93 -101 -80 -40 -199 -57 -364 -53 -83 2 -151 8 -168 16 l-27 12
0 272 c0 241 2 274 16 286 30 25 413 32 439 8z m-810 -230 c8 -24 8 -24 -27
-33 -22 -5 -28 -3 -28 10 0 16 26 43 42 44 4 0 10 -9 13 -21z m-125 -85 c0 -8
-4 -14 -10 -14 -5 0 -10 9 -10 21 0 11 5 17 10 14 6 -3 10 -13 10 -21z m1733
-60 c9 -9 -4 -35 -14 -28 -5 3 -9 12 -9 20 0 14 12 19 23 8z"/>
<path d="M7162 3410 c-38 -16 -43 -51 -40 -272 3 -194 4 -208 23 -222 17 -13
65 -15 286 -16 146 0 287 -3 311 -6 42 -6 46 -9 57 -44 7 -25 11 -170 11 -435
0 -355 2 -400 16 -417 16 -16 16 -18 0 -24 -27 -10 -22 -96 8 -131 l24 -28
306 1 305 1 20 24 c20 23 20 39 21 520 0 491 0 496 21 515 20 18 43 19 326 22
286 3 305 4 324 23 18 18 19 34 19 234 0 216 0 216 -24 240 l-25 25 -707 0
c-477 0 -712 -4 -720 -11 -9 -7 -24 -7 -51 0 -46 13 -479 14 -511 1z m1801
-67 c9 -9 -13 -34 -24 -27 -14 8 -11 34 4 34 8 0 17 -3 20 -7z"/>
<path d="M4700 1159 c-117 -12 -223 -56 -260 -110 -8 -12 -20 -27 -26 -33 -20
-21 -44 -110 -44 -165 0 -109 59 -204 160 -259 122 -65 359 -71 478 -11 32 17
38 17 56 4 38 -28 65 -35 91 -25 l25 10 0 148 c0 102 -4 152 -12 160 -8 8 -66
12 -195 12 l-183 0 -6 -24 c-3 -13 -4 -38 -2 -57 3 -32 5 -34 46 -37 55 -4 55
-24 -1 -39 -106 -29 -196 56 -166 156 17 57 48 83 107 89 35 3 61 -1 95 -17
38 -18 65 -21 164 -21 65 0 124 4 131 9 21 13 4 58 -42 104 -45 47 -86 71
-138 82 -18 4 -37 11 -43 15 -14 11 -158 16 -235 9z"/>
<path d="M252 1144 c-22 -15 -22 -16 -22 -299 l1 -283 31 -6 c17 -3 68 -6 114
-6 108 0 119 11 126 115 l3 40 165 5 c179 6 219 15 271 64 96 91 92 244 -9
325 -67 52 -125 61 -407 61 -211 0 -254 -2 -273 -16z m450 -190 c29 -15 29
-16 12 -35 -15 -16 -31 -19 -116 -19 -90 0 -98 2 -98 19 0 45 8 49 91 50 55 1
90 -4 111 -15z"/>
<path d="M1067 1136 c-15 -27 -22 -544 -8 -566 8 -12 34 -15 125 -15 63 0 118
4 123 8 4 5 9 47 10 94 0 46 4 88 8 91 4 4 53 9 109 10 126 4 130 1 131 -105
0 -98 7 -103 133 -103 51 0 102 5 113 10 18 10 19 24 19 283 0 220 -3 276 -14
293 -13 18 -27 21 -119 22 -128 3 -130 1 -133 -109 -1 -44 -4 -82 -7 -86 -6
-5 -229 -5 -234 1 -2 2 -4 42 -6 90 -1 64 -6 89 -17 97 -8 5 -61 8 -118 7 -93
-1 -104 -3 -115 -22z"/>
<path d="M2105 1143 c-94 -29 -166 -88 -206 -167 -38 -79 -21 -240 33 -306 23
-28 92 -76 133 -92 72 -30 220 -50 278 -39 29 5 76 12 106 16 61 7 96 22 161
72 41 30 55 51 101 145 14 27 10 108 -6 162 -34 112 -90 164 -225 210 -61 21
-305 20 -375 -1z m257 -193 c70 -20 97 -86 61 -149 -28 -47 -69 -64 -142 -59
-53 4 -66 9 -93 36 -26 25 -31 39 -31 75 0 31 6 51 21 67 33 36 115 49 184 30z"/>
<path d="M2741 1136 c-17 -18 -21 -35 -21 -83 0 -95 11 -102 145 -105 l110 -3
5 -187 c3 -102 9 -190 13 -195 11 -10 233 -10 244 0 4 5 9 90 10 190 2 133 6
183 15 189 7 4 58 8 114 8 64 0 104 4 112 12 7 7 12 43 12 93 0 69 -3 82 -20
93 -15 9 -105 12 -369 11 -348 -1 -349 -1 -370 -23z"/>
<path d="M3734 1142 c-72 -24 -137 -66 -171 -109 -123 -159 -58 -384 133 -457
60 -23 204 -46 249 -40 151 20 185 28 230 50 68 33 98 62 134 126 28 48 31 64
31 135 0 154 -70 245 -227 296 -71 23 -306 22 -379 -1z m290 -212 c42 -25 53
-68 30 -116 -26 -54 -58 -74 -121 -74 -92 0 -153 45 -153 112 0 36 36 87 67
94 15 3 33 8 38 10 23 9 109 -7 139 -26z"/>
<path d="M5246 1144 c-14 -13 -16 -54 -16 -294 0 -256 1 -280 18 -288 25 -13
221 -7 235 7 6 6 11 36 10 65 -2 67 10 78 73 74 46 -3 50 -6 107 -75 l58 -73
145 0 c173 0 173 0 84 109 -33 41 -60 77 -60 80 0 3 18 17 40 30 59 37 83 76
88 143 3 45 0 66 -18 100 -33 65 -70 93 -157 121 -75 24 -583 25 -607 1z m495
-201 c10 -9 9 -16 -1 -28 -11 -13 -33 -15 -124 -13 -99 3 -111 5 -114 22 -2
10 2 23 10 28 19 13 215 6 229 -9z"/>
<path d="M6316 1139 c-14 -11 -26 -25 -26 -30 0 -5 -14 -39 -31 -76 -34 -75
-77 -166 -119 -258 -82 -176 -91 -198 -81 -208 15 -15 254 -13 259 2 2 6 15
24 28 40 22 27 28 28 106 29 111 1 156 -6 163 -26 3 -9 17 -26 32 -36 26 -19
42 -20 221 -16 12 0 25 7 28 15 8 20 -35 127 -137 342 -21 46 -39 86 -39 89 0
17 -46 102 -69 127 l-25 27 -142 0 c-128 0 -144 -2 -168 -21z m194 -255 c28
-61 24 -78 -20 -82 -52 -3 -63 7 -48 49 11 33 37 79 44 79 2 0 13 -21 24 -46z"/>
<path d="M6972 1144 c-22 -15 -22 -16 -22 -299 l1 -283 31 -6 c17 -3 68 -6
114 -6 108 0 119 11 126 115 l3 40 165 5 c179 6 219 15 271 64 96 91 92 244
-9 325 -67 52 -125 61 -407 61 -211 0 -254 -2 -273 -16z m450 -190 c29 -15 29
-16 12 -35 -15 -16 -31 -19 -116 -19 -90 0 -98 2 -98 19 0 45 8 49 91 50 55 1
90 -4 111 -15z"/>
<path d="M7787 1136 c-15 -27 -22 -544 -8 -566 8 -12 34 -15 125 -15 63 0 118
4 123 8 4 5 9 47 10 94 0 46 4 88 8 91 4 4 53 9 109 10 126 4 130 1 131 -105
0 -98 7 -103 133 -103 51 0 102 5 113 10 18 10 19 24 19 283 0 220 -3 276 -14
293 -13 18 -27 21 -119 22 -128 3 -130 1 -133 -109 -1 -44 -4 -82 -7 -86 -6
-5 -229 -5 -234 1 -2 2 -4 42 -6 90 -1 64 -6 89 -17 97 -8 5 -61 8 -118 7 -93
-1 -104 -3 -115 -22z"/>
<path d="M8580 1145 c-10 -12 -9 -20 6 -42 10 -16 22 -33 28 -39 6 -6 18 -22
26 -34 8 -12 61 -84 118 -161 l104 -138 3 -81 c2 -45 5 -84 7 -86 7 -6 201
-13 225 -7 28 6 43 50 43 124 l0 58 125 168 c68 92 132 177 140 188 9 11 14
29 13 40 -3 19 -12 20 -128 23 -80 2 -133 -1 -146 -9 -12 -6 -48 -47 -80 -90
-32 -43 -63 -79 -69 -79 -6 0 -33 33 -61 74 -27 41 -61 82 -76 90 -37 22 -260
23 -278 1z"/>
</g>
</svg>
